<?xml version="1.0" encoding="UTF-8" standalone="no"?>
<!DOCTYPE svg PUBLIC "-//W3C//DTD SVG 1.1//EN" "http://www.w3.org/Graphics/SVG/1.1/DTD/svg11.dtd">
<svg width="100%" height="100%" viewBox="0 0 2476 856" version="1.1" xmlns="http://www.w3.org/2000/svg" xmlns:xlink="http://www.w3.org/1999/xlink" xml:space="preserve" xmlns:serif="http://www.serif.com/" style="fill-rule:evenodd;clip-rule:evenodd;stroke-linecap:square;stroke-miterlimit:1.5;">
    <g transform="matrix(1,0,0,1,-250.555,-847.285)">
        <g>
            <g transform="matrix(1.15895,0,0,1.15895,-246.1,-1045.03)">
                <path d="M816.029,1690.88C792.566,1709.13 772.797,1729.88 756.72,1753.12C740.644,1776.37 726.631,1800.81 714.683,1826.44C702.734,1852.08 691.98,1878.58 682.421,1905.96C672.862,1933.33 662.76,1960.27 652.115,1986.77C641.47,2013.28 629.413,2039.02 615.943,2064.01C602.474,2088.99 585.746,2112.13 565.759,2133.42L567.062,2134.72C592.698,2119.51 616.921,2104.85 639.732,2090.73C662.543,2076.61 684.376,2062.81 705.232,2049.34C759.979,2014.15 803.211,1980.47 834.93,1948.32C866.648,1916.17 890.545,1886.73 906.622,1860.01C922.698,1833.29 932.909,1809.93 937.254,1789.95C941.599,1769.96 943.771,1754.97 943.771,1744.98C938.123,1743.24 934.321,1740.41 932.366,1736.5C930.41,1732.59 929.433,1727.81 929.433,1722.16C929.433,1714.78 931.822,1708.69 936.602,1703.92C941.381,1699.14 947.464,1696.75 954.851,1696.75C966.148,1696.75 973.86,1700.55 977.988,1708.15C982.115,1715.76 984.179,1725.86 984.179,1738.46C984.179,1755.4 980.16,1773.33 972.122,1792.23C964.084,1811.13 953.004,1830.25 938.883,1849.58C924.762,1868.92 908.36,1888.36 889.676,1907.91C870.993,1927.46 851.115,1946.37 830.041,1964.61C808.968,1982.86 787.026,2000.24 764.215,2016.75C741.404,2033.26 719.136,2048.26 697.411,2061.72C671.776,2077.37 646.141,2093.01 620.505,2108.65C594.87,2124.29 568.149,2140.37 540.341,2156.88L537.082,2153.62C552.289,2131.46 565.433,2107.67 576.513,2082.25C587.592,2056.84 597.912,2030.66 607.47,2003.72C617.029,1976.78 626.697,1949.84 636.473,1922.9C646.249,1895.96 657.438,1870 670.038,1845.02C682.638,1820.04 697.629,1796.68 715.008,1774.96C732.388,1753.23 753.461,1734.33 778.228,1718.25L776.924,1716.95C758.675,1726.51 738.906,1733.79 717.615,1738.78C696.325,1743.78 674.6,1749.32 652.441,1755.4C638.103,1759.31 622.569,1764.53 605.841,1771.05C589.113,1777.56 573.58,1785.93 559.241,1796.14C544.903,1806.35 532.846,1818.3 523.069,1831.98C513.293,1845.67 508.405,1861.64 508.405,1879.89C508.405,1895.09 513.185,1906.83 522.744,1915.08C532.303,1923.34 543.599,1927.46 556.634,1927.46C564.455,1927.46 572.168,1925.84 579.771,1922.58C587.375,1919.32 594.11,1914.97 599.975,1909.54C605.841,1904.11 610.512,1897.48 613.988,1889.66C617.464,1881.84 619.202,1873.37 619.202,1864.25L619.202,1852.51C619.202,1849.04 618.767,1845.35 617.898,1841.43L625.068,1841.43C625.502,1844.91 625.937,1848.6 626.371,1852.51C626.806,1856.42 627.023,1860.77 627.023,1865.55C627.023,1874.67 625.176,1883.36 621.483,1891.62C617.79,1899.87 612.684,1907.26 606.167,1913.78C599.65,1920.3 591.937,1925.51 583.03,1929.42C574.123,1933.33 564.673,1935.29 554.679,1935.29C536.43,1935.29 521.114,1929.96 508.731,1919.32C496.348,1908.67 490.156,1894.01 490.156,1875.33C490.156,1854.9 495.479,1837.63 506.124,1823.51C516.769,1809.39 529.913,1797.44 545.555,1787.66C561.197,1777.89 577.925,1769.96 595.739,1763.88C613.553,1757.79 629.63,1752.8 643.968,1748.89C655.265,1745.41 668.409,1742.04 683.399,1738.78C698.389,1735.53 713.488,1731.72 728.695,1727.38C743.903,1723.03 758.784,1717.71 773.34,1711.41C787.895,1705.11 800.604,1697.18 811.467,1687.62L816.029,1690.88Z" style="fill-rule:nonzero;"/>
            </g>
            <g transform="matrix(1,0,0,1,-168.189,-702.194)">
                <path d="M1197.3,1986.77C1186.87,1998.51 1175.14,2007.85 1162.11,2014.8C1149.07,2021.75 1136.25,2025.23 1123.65,2025.23C1111.49,2025.23 1101.06,2022.51 1092.37,2017.08C1083.68,2011.65 1076.94,2005.24 1072.16,1997.85L1070.86,1997.85C1066.52,2014.36 1058.48,2031.96 1046.75,2050.64C1035.02,2069.33 1021,2086.49 1004.71,2102.13C988.416,2117.77 970.493,2130.81 950.94,2141.24C931.388,2151.66 911.401,2156.88 890.98,2156.88C872.296,2156.88 858.175,2151.45 848.616,2140.59C839.057,2129.72 834.278,2115.17 834.278,2096.92C834.278,2087.36 836.668,2076.28 841.447,2063.68C846.227,2051.08 852.853,2038.37 861.325,2025.55C869.798,2012.73 879.791,2000.13 891.306,1987.75C902.82,1975.37 915.312,1964.29 928.781,1954.51C942.25,1944.74 956.48,1936.91 971.47,1931.05C986.46,1925.18 1001.56,1922.25 1016.77,1922.25C1034.58,1922.25 1048.38,1927.46 1058.15,1937.89C1067.93,1948.32 1073.25,1961.79 1074.12,1978.3C1074.99,1988.29 1079.66,1997.53 1088.13,2006C1096.61,2014.47 1108.23,2018.71 1123,2018.71C1136.04,2018.71 1148.31,2015.45 1159.83,2008.93C1171.34,2002.41 1182.09,1993.94 1192.09,1983.52L1197.3,1986.77ZM869.472,2112.56C869.472,2123.86 871.645,2132.76 875.99,2139.28C880.335,2145.8 886.852,2149.06 895.542,2149.06C907.273,2149.06 918.896,2145.91 930.41,2139.61C941.924,2133.31 953.004,2125.05 963.649,2114.84C974.294,2104.63 984.179,2093.01 993.304,2079.97C1002.43,2066.94 1010.36,2053.47 1017.09,2039.57C1023.83,2025.66 1029.15,2012.08 1033.06,1998.83C1036.97,1985.58 1038.93,1973.52 1038.93,1962.66C1038.93,1953.53 1036.64,1945.82 1032.08,1939.52C1027.52,1933.22 1020.46,1930.07 1010.9,1930.07C1001.78,1930.07 992,1933 981.572,1938.87C971.144,1944.74 960.608,1952.45 949.963,1962.01C939.317,1971.57 929.215,1982.65 919.656,1995.25C910.098,2007.85 901.516,2020.88 893.913,2034.35C886.309,2047.82 880.335,2061.29 875.99,2074.76C871.645,2088.23 869.472,2100.83 869.472,2112.56Z" style="fill-rule:nonzero;"/>
            </g>
            <g transform="matrix(1.11194,0,0,1.11194,-510.281,-965.697)">
                <path d="M1571.4,1984.17C1581.39,1984.17 1588.89,1986.45 1593.89,1991.01C1598.88,1995.57 1601.38,2001.55 1601.38,2008.93C1601.38,2015.45 1599.43,2020.99 1595.52,2025.55C1591.61,2030.11 1586.39,2032.39 1579.87,2032.39C1577.7,2032.39 1575.2,2031.85 1572.38,2030.77C1569.56,2029.68 1567.49,2028.05 1566.19,2025.88C1561.41,2031.09 1558.26,2037.39 1556.74,2044.78C1555.22,2052.16 1554.46,2059.99 1554.46,2068.24C1554.46,2079.54 1557.17,2090.4 1562.6,2100.83C1568.03,2111.26 1575.86,2120.38 1586.07,2128.2C1596.28,2136.02 1608.55,2142.32 1622.89,2147.1C1637.23,2151.88 1653.09,2154.27 1670.47,2154.27C1700.01,2154.27 1725,2147.54 1745.42,2134.07C1765.84,2120.6 1782.35,2103.33 1794.95,2082.25C1807.55,2061.18 1816.67,2037.83 1822.32,2012.19C1827.97,1986.56 1831.01,1961.79 1831.45,1937.89C1831.88,1899.22 1835.68,1864.46 1842.85,1833.61C1850.02,1802.76 1860.23,1776.59 1873.49,1755.08C1886.74,1733.57 1903.25,1716.95 1923.02,1705.22C1942.79,1693.49 1965.49,1687.62 1991.13,1687.62C2014.15,1687.62 2032.84,1693.16 2047.18,1704.24C2061.51,1715.32 2068.68,1729.77 2068.68,1747.58C2068.68,1761.49 2063.8,1771.91 2054.02,1778.87C2044.24,1785.82 2032.62,1789.29 2019.15,1789.29C2023.93,1781.91 2027.52,1774.74 2029.9,1767.79C2032.29,1760.84 2033.49,1752.14 2033.49,1741.72C2033.49,1726.08 2028.93,1714.45 2019.8,1706.85C2010.68,1699.25 1999.82,1695.44 1987.22,1695.44C1970.27,1695.44 1955.82,1698.81 1943.87,1705.55C1931.92,1712.28 1921.82,1721.51 1913.57,1733.24C1905.31,1744.98 1898.69,1758.66 1893.69,1774.3C1888.69,1789.95 1884.67,1806.57 1881.63,1824.16C1878.59,1841.76 1876.31,1859.9 1874.79,1878.58C1873.27,1897.27 1871.86,1915.73 1870.55,1933.98C1867.51,1978.74 1859.58,2015.78 1846.76,2045.1C1833.95,2074.43 1818.2,2097.79 1799.51,2115.17C1780.83,2132.55 1759.97,2144.71 1736.94,2151.66C1713.92,2158.62 1690.24,2162.09 1665.9,2162.09C1646.35,2162.09 1628.43,2158.94 1612.14,2152.64C1595.84,2146.34 1581.83,2137.65 1570.1,2126.57C1558.37,2115.49 1549.35,2102.35 1543.05,2087.14C1536.75,2071.93 1533.6,2055.21 1533.6,2036.96C1533.6,2021.75 1537.08,2009.15 1544.03,1999.16C1550.98,1989.16 1560.11,1984.17 1571.4,1984.17Z" style="fill-rule:nonzero;"/>
            </g>
            <g transform="matrix(1,0,0,1,14.1359,0)">
                <g transform="matrix(1,0,0,1,-369.505,-723.67)">
                    <path d="M2209.46,1988.08C2199.47,2004.15 2186.32,2021.42 2170.03,2039.89C2153.74,2058.36 2136.03,2075.63 2116.91,2091.7C2093.45,2111.26 2069.99,2127.01 2046.52,2138.96C2023.06,2150.9 2000.03,2156.88 1977.44,2156.88C1961.36,2156.88 1947.89,2152.64 1937.03,2144.17C1926.17,2135.7 1920.74,2123.2 1920.74,2106.69C1920.74,2085.84 1926.71,2064.55 1938.66,2042.82C1950.61,2021.1 1965.6,2001.22 1983.63,1983.19C2001.66,1965.16 2021.43,1950.49 2042.94,1939.2C2064.45,1927.9 2084.76,1922.25 2103.88,1922.25C2116.48,1922.25 2127.45,1924.53 2136.79,1929.09C2146.13,1933.66 2150.8,1941.59 2150.8,1952.88C2150.8,1958.1 2149.39,1962.44 2146.57,1965.92C2143.74,1969.39 2140.27,1972.22 2136.14,1974.39C2132.01,1976.56 2127.45,1978.19 2122.45,1979.28C2117.46,1980.36 2113,1981.12 2109.09,1981.56C2110.83,1977.21 2112.35,1972.76 2113.65,1968.2C2114.96,1963.64 2115.61,1958.97 2115.61,1954.19C2115.61,1938.11 2108.01,1930.07 2092.8,1930.07C2081.5,1930.07 2068.14,1935.61 2052.72,1946.69C2037.29,1957.77 2022.74,1971.78 2009.05,1988.73C1995.36,2005.67 1983.74,2024.36 1974.18,2044.78C1964.62,2065.2 1959.84,2084.97 1959.84,2104.09C1959.84,2115.82 1962.56,2125.81 1967.99,2134.07C1973.42,2142.32 1981.78,2146.45 1993.08,2146.45C2008.29,2146.45 2025.78,2141.45 2045.55,2131.46C2065.32,2121.47 2084.54,2109.08 2103.23,2094.31C2122.78,2079.1 2141.57,2061.62 2159.6,2041.85C2177.63,2022.08 2192.73,2002.85 2204.9,1984.17L2209.46,1988.08Z" style="fill-rule:nonzero;"/>
                </g>
                <g transform="matrix(1,0,0,1,-369.505,-723.67)">
                    <path d="M2382.17,1927.46L2424.54,1927.46C2408.46,1950.06 2393.03,1972 2378.26,1993.29C2363.49,2014.58 2350.35,2034.24 2338.83,2052.27C2327.32,2070.3 2318.09,2086.16 2311.13,2099.85C2304.18,2113.54 2300.7,2124.29 2300.7,2132.11C2300.7,2143.41 2306.57,2149.06 2318.3,2149.06C2327.43,2149.06 2339.05,2144.6 2353.17,2135.7C2367.29,2126.79 2382.61,2114.51 2399.12,2098.87C2415.63,2083.23 2432.57,2064.98 2449.95,2044.13C2467.33,2023.27 2483.85,2001.11 2499.49,1977.65L2503.4,1978.95C2491.67,1996.77 2477.87,2015.99 2462.01,2036.63C2446.15,2057.27 2429.53,2076.5 2412.15,2094.31C2394.77,2112.13 2377.39,2127.01 2360.01,2138.96C2342.63,2150.9 2326.34,2156.88 2311.13,2156.88C2298.53,2156.88 2289.3,2153.73 2283.43,2147.43C2277.57,2141.13 2274.64,2133.63 2274.64,2124.94C2274.64,2118.86 2275.61,2112.89 2277.57,2107.02C2279.52,2101.16 2281.59,2095.18 2283.76,2089.1L2282.46,2088.45C2276.81,2094.53 2269.75,2101.59 2261.27,2109.63C2252.8,2117.66 2243.68,2125.16 2233.9,2132.11C2224.12,2139.06 2214.02,2144.93 2203.6,2149.71C2193.17,2154.49 2183.17,2156.88 2173.61,2156.88C2157.54,2156.88 2146.24,2151.88 2139.72,2141.89C2133.21,2131.89 2129.95,2120.6 2129.95,2108C2129.95,2090.18 2135.6,2070.52 2146.89,2049.01C2158.19,2027.51 2172.53,2007.3 2189.91,1988.4C2207.29,1969.5 2226.19,1953.75 2246.61,1941.15C2267.03,1928.55 2286.37,1922.25 2304.62,1922.25C2313.3,1922.25 2320.91,1923.44 2327.43,1925.84C2333.94,1928.23 2339.38,1931.48 2343.72,1935.61C2348.07,1939.74 2351.43,1944.41 2353.82,1949.62C2356.21,1954.84 2358.06,1960.27 2359.36,1965.92L2360.66,1965.92L2382.17,1927.46ZM2169.05,2109.95C2169.05,2119.95 2171.12,2127.66 2175.24,2133.09C2179.37,2138.52 2185.13,2141.24 2192.51,2141.24C2199.9,2141.24 2208.59,2138.52 2218.59,2133.09C2228.58,2127.66 2239.01,2120.38 2249.87,2111.26C2260.73,2102.13 2271.49,2091.6 2282.13,2079.65C2292.78,2067.7 2302.22,2054.99 2310.48,2041.52C2318.74,2028.05 2325.47,2014.36 2330.68,2000.46C2335.9,1986.56 2338.51,1973.3 2338.51,1960.7C2338.51,1950.71 2335.68,1943.11 2330.03,1937.89C2324.39,1932.68 2317.43,1930.07 2309.18,1930.07C2296.14,1930.07 2281.59,1935.72 2265.51,1947.02C2249.43,1958.31 2234.23,1972.76 2219.89,1990.36C2205.55,2007.96 2193.49,2027.4 2183.72,2048.69C2173.94,2069.98 2169.05,2090.4 2169.05,2109.95Z" style="fill-rule:nonzero;"/>
                </g>
                <g transform="matrix(1,0,0,1,-369.505,-723.67)">
                    <path d="M2652.65,1801.03C2629.62,1836.22 2605.72,1870.76 2580.95,1904.65C2556.19,1938.54 2532.51,1973.3 2509.91,2008.93L2511.22,2010.24C2517.74,2001.55 2525.34,1992.1 2534.03,1981.88C2542.72,1971.67 2552.06,1962.12 2562.05,1953.21C2572.05,1944.3 2582.91,1936.91 2594.64,1931.05C2606.37,1925.18 2618.32,1922.25 2630.49,1922.25C2644.39,1922.25 2656.12,1925.94 2665.68,1933.33C2675.24,1940.72 2680.02,1953.53 2680.02,1971.78C2680.02,1983.08 2678.5,1993.83 2675.46,2004.05C2672.42,2014.26 2668.4,2023.81 2663.4,2032.72C2658.4,2041.63 2652.76,2049.88 2646.45,2057.49C2640.16,2065.09 2633.75,2072.15 2627.23,2078.67L2628.53,2079.97C2659.82,2074.32 2688.17,2063.68 2713.59,2048.04C2739,2032.39 2764.31,2008.93 2789.51,1977.65L2794.73,1980.26C2775.18,2004.15 2756.93,2022.84 2739.98,2036.31C2723.04,2049.78 2707.39,2059.88 2693.05,2066.61C2678.72,2073.35 2665.47,2078.02 2653.3,2080.62C2641.13,2083.23 2629.62,2085.84 2618.76,2088.45C2611.37,2094.09 2603.01,2100.83 2593.66,2108.65C2584.32,2116.47 2574.44,2123.97 2564.01,2131.14C2553.58,2138.3 2542.72,2144.39 2531.42,2149.38C2520.13,2154.38 2508.61,2156.88 2496.88,2156.88C2490.8,2156.88 2484.82,2155.25 2478.96,2151.99C2473.09,2148.73 2470.16,2143.41 2470.16,2136.02C2470.16,2126.9 2474.61,2119.3 2483.52,2113.21C2492.43,2107.13 2503.29,2102.24 2516.11,2098.55C2528.92,2094.85 2542.28,2092.03 2556.19,2090.07C2570.09,2088.12 2581.82,2086.71 2591.38,2085.84C2597.03,2079.32 2602.79,2071.39 2608.65,2062.05C2614.52,2052.71 2619.84,2042.82 2624.62,2032.39C2629.4,2021.97 2633.31,2011.21 2636.35,2000.13C2639.39,1989.05 2640.92,1978.74 2640.92,1969.18C2640.92,1953.97 2638.74,1944.08 2634.4,1939.52C2630.05,1934.96 2624.84,1932.68 2618.76,1932.68C2608.76,1932.68 2598.23,1936.26 2587.15,1943.43C2576.07,1950.6 2564.88,1959.94 2553.58,1971.46C2542.28,1982.97 2531.1,1995.79 2520.02,2009.91C2508.94,2024.03 2498.62,2038.04 2489.06,2051.95C2479.5,2065.85 2470.81,2078.78 2462.99,2090.73C2455.17,2102.68 2448.65,2112.13 2443.44,2119.08C2439.53,2124.73 2433.88,2132.98 2426.49,2143.84C2419.11,2154.71 2410.85,2167.09 2401.72,2180.99C2392.6,2194.9 2382.93,2209.89 2372.72,2225.96C2362.51,2242.04 2352.41,2258.22 2342.42,2274.52C2332.42,2290.81 2322.86,2306.56 2313.74,2321.77C2304.62,2336.98 2296.58,2350.66 2289.62,2362.83L2249.22,2362.83C2307.87,2268.54 2367.73,2175.02 2428.77,2082.25C2489.82,1989.49 2550.11,1895.75 2609.63,1801.03L2652.65,1801.03ZM2506,2149.06C2512.52,2149.06 2519.8,2146.89 2527.84,2142.54C2535.88,2138.2 2543.7,2132.98 2551.3,2126.9C2558.9,2120.82 2565.75,2114.73 2571.83,2108.65C2577.91,2102.57 2582.26,2098 2584.87,2094.96L2583.56,2093.66C2576.18,2094.96 2566.94,2096.38 2555.86,2097.9C2544.78,2099.42 2534.14,2101.48 2523.93,2104.09C2513.72,2106.69 2505.03,2110.28 2497.86,2114.84C2490.69,2119.4 2487.1,2125.6 2487.1,2133.42C2487.1,2138.63 2489.06,2142.54 2492.97,2145.15C2496.88,2147.75 2501.22,2149.06 2506,2149.06Z" style="fill-rule:nonzero;"/>
                </g>
                <g transform="matrix(1,0,0,1,-369.505,-723.67)">
                    <path d="M2904.22,1948.32C2904.22,1942.24 2902.59,1937.67 2899.33,1934.63C2896.07,1931.59 2892.05,1930.07 2887.28,1930.07C2878.15,1930.07 2868.27,1933.66 2857.62,1940.83C2846.98,1947.99 2836.44,1956.9 2826.01,1967.55C2815.58,1978.19 2806.13,1989.6 2797.66,2001.76C2789.19,2013.93 2782.78,2024.79 2778.43,2034.35C2787.99,2032.61 2799.94,2029.25 2814.28,2024.25C2828.62,2019.25 2842.41,2013.06 2855.67,2005.67C2868.92,1998.29 2880.32,1989.71 2889.88,1979.93C2899.44,1970.15 2904.22,1959.62 2904.22,1948.32ZM3009.8,1982.86C3003.29,1993.73 2995.14,2005.67 2985.36,2018.71C2975.59,2031.74 2964.51,2044.67 2952.12,2057.49C2939.74,2070.3 2926.49,2082.69 2912.37,2094.64C2898.25,2106.59 2883.58,2117.23 2868.38,2126.57C2853.17,2135.91 2837.85,2143.3 2822.43,2148.73C2807,2154.16 2791.9,2156.88 2777.13,2156.88C2758.88,2156.88 2744.76,2152.21 2734.77,2142.87C2724.77,2133.53 2719.78,2120.16 2719.78,2102.78C2719.78,2083.67 2725.53,2063.57 2737.05,2042.5C2748.56,2021.42 2763.23,2001.98 2781.04,1984.17C2798.86,1966.35 2818.41,1951.58 2839.7,1939.85C2860.99,1928.12 2881.41,1922.25 2900.96,1922.25C2911.82,1922.25 2920.3,1924.53 2926.38,1929.09C2932.46,1933.66 2935.51,1940.28 2935.51,1948.97C2935.51,1959.4 2929.86,1969.5 2918.56,1979.28C2907.26,1989.05 2893.47,1997.96 2877.17,2006C2860.88,2014.04 2843.39,2021.21 2824.71,2027.51C2806.02,2033.81 2789.51,2038.48 2775.18,2041.52C2770.4,2050.21 2766.49,2059.99 2763.44,2070.85C2760.4,2081.71 2758.88,2092.57 2758.88,2103.44C2758.88,2108.65 2759.43,2113.76 2760.51,2118.75C2761.6,2123.75 2763.34,2128.31 2765.72,2132.44C2768.12,2136.57 2771.37,2139.93 2775.5,2142.54C2779.63,2145.15 2784.73,2146.45 2790.82,2146.45C2805.16,2146.45 2821.99,2141.78 2841.33,2132.44C2860.66,2123.1 2880.32,2110.61 2900.31,2094.96C2920.3,2079.32 2939.41,2061.51 2957.66,2041.52C2975.91,2021.53 2991.55,2000.89 3004.59,1979.6L3009.8,1982.86Z" style="fill-rule:nonzero;"/>
                </g>
            </g>
            <g transform="matrix(0.585414,0,-0.37891,0.841679,1431.42,-632.417)">
                <path d="M944.254,1958.91C1004.54,1833.55 1125.12,1833.55 1185.41,1896.23C1245.7,1958.91 1245.7,2084.28 1185.41,2209.64C1143.21,2303.66 1034.69,2397.69 944.254,2460.37C853.82,2397.69 745.301,2303.66 703.099,2209.64C642.81,2084.28 642.81,1958.91 703.099,1896.23C763.388,1833.55 883.965,1833.55 944.254,1958.91Z" style="fill:rgb(242,13,13);stroke:black;stroke-width:37.4px;"/>
            </g>
            <g transform="matrix(0.387878,0,-0.259318,0.576027,1439.55,21.1838)">
                <path d="M944.254,1958.91C1004.54,1833.55 1125.12,1833.55 1185.41,1896.23C1245.7,1958.91 1245.7,2084.28 1185.41,2209.64C1143.21,2303.66 1034.69,2397.69 944.254,2460.37C853.82,2397.69 745.301,2303.66 703.099,2209.64C642.81,2084.28 642.81,1958.91 703.099,1896.23C763.388,1833.55 883.965,1833.55 944.254,1958.91Z" style="fill:rgb(242,13,13);stroke:black;stroke-width:54.91px;"/>
            </g>
        </g>
        <g transform="matrix(0.878304,0,0,0.842908,83.5796,243.956)">
            <rect x="190.111" y="715.772" width="2818.26" height="1014.86" style="fill:none;"/>
        </g>
    </g>
</svg>
